<svg width="31" height="25" viewBox="0 0 31 25" fill="none" xmlns="http://www.w3.org/2000/svg">
<path d="M15.5001 0.833344H5.29175C2.87091 0.833344 0.916748 2.78751 0.916748 5.20834V16.875C0.916748 19.2958 2.87091 21.25 5.29175 21.25L3.83342 22.7083V24.1667H5.29175L8.20842 21.2063L11.1251 21.25V13.9583H3.83342V3.72084L16.9584 3.75001V6.66668H19.8751V5.20834C19.8751 2.78751 17.9209 0.833344 15.5001 0.833344ZM5.29175 15.4167C6.09383 15.4167 6.75008 16.0729 6.75008 16.875C6.75008 17.6771 6.09383 18.3333 5.29175 18.3333C4.48967 18.3333 3.83342 17.6771 3.83342 16.875C3.83342 16.0729 4.48967 15.4167 5.29175 15.4167ZM27.998 9.08751C27.7938 8.50418 27.2397 8.12501 26.5834 8.12501H16.098C15.4272 8.12501 14.8876 8.50418 14.6688 9.08751L12.5834 15.0813L12.598 23.1167C12.598 23.6708 13.0501 24.1667 13.6042 24.1667H14.5084C15.0626 24.1667 15.5001 23.6125 15.5001 23.0583V21.25H27.1668V23.0583C27.1668 23.6125 27.6188 24.1667 28.173 24.1667H29.0626C29.6168 24.1667 30.0688 23.6708 30.0688 23.1167L30.0834 21.1188V15.0813L27.998 9.08751ZM16.098 9.58334H26.5834L28.0855 13.9583H14.5959L16.098 9.58334ZM15.5001 18.3333C14.698 18.3333 14.0417 17.6771 14.0417 16.875C14.0417 16.0729 14.698 15.4167 15.5001 15.4167C16.3022 15.4167 16.9584 16.0729 16.9584 16.875C16.9584 17.6771 16.3022 18.3333 15.5001 18.3333ZM27.1668 18.3333C26.3647 18.3333 25.7084 17.6771 25.7084 16.875C25.7084 16.0729 26.3647 15.4167 27.1668 15.4167C27.9688 15.4167 28.6251 16.0729 28.6251 16.875C28.6251 17.6771 27.9688 18.3333 27.1668 18.3333Z" fill="white"/>
</svg>
