<svg width="48" height="57" viewBox="0 0 48 57" fill="none" xmlns="http://www.w3.org/2000/svg">
<path d="M24.0001 0.833374C11.1084 0.833374 0.666748 2.29171 0.666748 12.5V40.2084C0.666748 45.8375 5.24591 50.4167 10.8751 50.4167L6.50008 54.7917V56.25H41.5001V54.7917L37.1251 50.4167C42.7542 50.4167 47.3334 45.8375 47.3334 40.2084V12.5C47.3334 2.29171 36.8917 0.833374 24.0001 0.833374ZM10.8751 44.5834C8.45425 44.5834 6.50008 42.6292 6.50008 40.2084C6.50008 37.7875 8.45425 35.8334 10.8751 35.8334C13.2959 35.8334 15.2501 37.7875 15.2501 40.2084C15.2501 42.6292 13.2959 44.5834 10.8751 44.5834ZM21.0834 27.0834H6.50008V12.5H21.0834V27.0834ZM37.1251 44.5834C34.7042 44.5834 32.7501 42.6292 32.7501 40.2084C32.7501 37.7875 34.7042 35.8334 37.1251 35.8334C39.5459 35.8334 41.5001 37.7875 41.5001 40.2084C41.5001 42.6292 39.5459 44.5834 37.1251 44.5834ZM41.5001 27.0834H26.9167V12.5H41.5001V27.0834Z" fill="white"/>
</svg>
