<svg width="21" height="31" viewBox="0 0 21 31" fill="none" xmlns="http://www.w3.org/2000/svg">
<path d="M19.2501 9.66666C19.2501 4.83957 15.3272 0.916656 10.5001 0.916656C5.673 0.916656 1.75008 4.83957 1.75008 9.66666C1.75008 16.2292 10.5001 25.7083 10.5001 25.7083C10.5001 25.7083 19.2501 16.2292 19.2501 9.66666ZM7.58342 9.66666C7.58342 8.06249 8.89592 6.74999 10.5001 6.74999C12.1042 6.74999 13.4167 8.06249 13.4167 9.66666C13.4167 11.2708 12.1188 12.5833 10.5001 12.5833C8.89592 12.5833 7.58342 11.2708 7.58342 9.66666ZM0.291748 27.1667V30.0833H20.7084V27.1667H0.291748Z" fill="white"/>
</svg>
